<?xml version="1.0" encoding="iso-8859-1"?>
<!-- Generator: Adobe Illustrator 19.0.0, SVG Export Plug-In . SVG Version: 6.00 Build 0)  -->
<svg version="1.1" id="Layer_1" xmlns="http://www.w3.org/2000/svg" xmlns:xlink="http://www.w3.org/1999/xlink" x="0px" y="0px"
	 viewBox="0 0 232.363 232.363" style="enable-background:new 0 0 232.363 232.363;" xml:space="preserve">
<g>
	<path d="M228.439,56.691c3.621,0.779,4.813,5.088,3.254,8.021c-1.054,2.063-2.246,4.079-3.392,6.096
		c-0.092,1.421-0.688,2.75-1.971,3.529c-10.13,17.83-21.726,34.697-34.926,50.51c-0.046,0.046-0.137,0.092-0.183,0.183
		c15.217,10.496,51.61,37.309,33.826,52.389c-9.304,7.929-36.255,6.6-46.706,2.108c-6.004-2.567-11.459-7.104-16.592-11.138
		c-8.938-7.013-11.459-6.6-19.48,0.871c-10.313,9.625-16.042,15.721-31.259,13.979c-17.875-2.063-35.063-12.009-48.722-23.192
		C33.596,136.443,7.791,96.796,0.091,60.266c-0.596-2.842,1.833-5.042,4.171-5.088c0.138-0.046,0.183-0.092,0.321-0.138
		c13.934-2.475,29.563-3.071,43.634-1.513c1.329,0.138,2.338,0.688,3.117,1.375c0.367,0.138,0.779,0.367,1.1,0.779
		C63.618,68.837,68.568,86.208,80.21,98.996c5.638,6.188,7.471,5.179,8.067-3.346c0.275-3.667,0.275-7.333,0.092-11
		c-0.55-9.579-4.034-17.967-5.5-27.272c-0.229-1.329,0.046-2.521,0.642-3.529c0.321-1.971,1.925-3.85,4.263-4.171
		c13.613-1.788,28.005-0.137,41.801-0.55c2.017-0.55,3.621,0.229,4.675,1.604c0.963,0.275,1.833,0.962,2.108,2.2
		c2.017,8.525,1.833,16.684,1.696,25.392c-0.092,4.079-0.183,8.204-0.275,12.284c-0.092,2.338-0.092,4.675-0.092,7.013
		c-0.917,4.309,0.779,5.959,5.042,4.95c7.196,0.779,9.167-5.179,12.696-10.679c2.108-3.254,4.125-6.6,6.05-9.992
		c4.492-7.975,7.838-16.363,12.009-24.476c0.733-1.513,2.017-2.2,3.346-2.383c0.412-0.229,0.917-0.367,1.421-0.413
		C194.659,54.261,212.306,53.253,228.439,56.691z"/>
</g>
<g>
</g>
<g>
</g>
<g>
</g>
<g>
</g>
<g>
</g>
<g>
</g>
<g>
</g>
<g>
</g>
<g>
</g>
<g>
</g>
<g>
</g>
<g>
</g>
<g>
</g>
<g>
</g>
<g>
</g>
</svg>
