<svg height="511pt" viewBox="0 -61 511.9997 511" width="511pt" fill="white" xmlns="http://www.w3.org/2000/svg"><path d="m511.886719 372.609375c-20.136719-164.457031-156.878907-289.667969-321.152344-296.894531v-37.066406c0-28.15625-15.339844-38.148438-28.472656-38.148438-9.566407 0-19.269531 4.851562-28.832031 14.414062l-115.933594 115.933594c-23.328125 23.328125-23.328125 61.285156 0 84.613282l115.933594 115.933593c9.5625 9.5625 19.265624 14.414063 28.832031 14.414063 13.136719 0 28.472656-9.992188 28.472656-38.148438v-39.636718c18.6875-3.648438 37.628906-5.492188 56.46875-5.492188 93.496094 0 182.355469 45.144531 237.699219 120.761719 2.890625 3.945312 7.429687 6.140625 12.105468 6.140625 1.847657 0 3.71875-.34375 5.515626-1.054688 6.34375-2.511718 10.195312-8.992187 9.363281-15.769531zm0 0"/></svg>